<svg width="275" height="502" viewBox="0 0 275 502" fill="none" xmlns="http://www.w3.org/2000/svg">
<path d="M213 1.5299e-05L63 2.18557e-06L38 25L63 50L213 50L238 25L213 1.5299e-05Z" fill="#D9D9D9"/>
<path d="M213 223L63 223L38 248L63 273L213 273L238 248L213 223Z" fill="#D9D9D9"/>
<path d="M213 452L63 452L38 477L63 502L213 502L238 477L213 452Z" fill="#D9D9D9"/>
<path d="M275 209V59L250 34L225 59L225 209L250 234L275 209Z" fill="#D9D9D9"/>
<path d="M275 439V289L250 264L225 289L225 439L250 464L275 439Z" fill="#D9D9D9"/>
<path d="M50 209V59L25 34L3.8147e-06 59L1.52588e-05 209L25 234L50 209Z" fill="#D9D9D9"/>
<path d="M50 439V289L25 264L3.8147e-06 289L1.52588e-05 439L25 464L50 439Z" fill="#D9D9D9"/>
</svg>
